<svg width="24" height="24" viewBox="0 0 289 290" fill="none" xmlns="http://www.w3.org/2000/svg">
<path d="M1.52545 38.9154C-0.421602 36.9572 -0.412581 33.7914 1.54559 31.8443L32.0377 1.52545C33.9958 -0.421602 37.1616 -0.412586 39.1087 1.54559L287.132 250.986C289.079 252.944 289.07 256.11 287.112 258.057L256.62 288.376C254.662 290.323 251.496 290.314 249.549 288.356L1.52545 38.9154Z" fill="white"/>
<path d="M287.132 38.9157C289.079 36.9575 289.07 33.7917 287.112 31.8447L256.62 1.52579C254.662 -0.421267 251.496 -0.412251 249.549 1.54592L1.52545 250.986C-0.421607 252.944 -0.412586 256.11 1.54559 258.057L32.0376 288.376C33.9958 290.323 37.1616 290.314 39.1087 288.356L287.132 38.9157Z" fill="white"/>
</svg>
